Coordinates
nRows=8
nColumns=38

# SIMM Motion File Header:
name Coordinates
datacolumns 38
datarows 8
otherdata 1
range 2.49399999999999980000 2.50099999999999990000

Units are S.I. units (second, meters, Newtons, ...)
Angles are in degrees.

endheader
time	pelvis_tilt	pelvis_list	pelvis_rotation	pelvis_tx	pelvis_ty	pelvis_tz	hip_flexion_r	hip_adduction_r	hip_rotation_r	knee_angle_r	ankle_angle_r	subtalar_angle_r	mtp_angle_r	hip_flexion_l	hip_adduction_l	hip_rotation_l	knee_angle_l	ankle_angle_l	subtalar_angle_l	mtp_angle_l	lumbar_extension	lumbar_bending	lumbar_rotation	arm_flex_r	arm_add_r	arm_rot_r	elbow_flex_r	pro_sup_r	wrist_flex_r	wrist_dev_r	arm_flex_l	arm_add_l	arm_rot_l	elbow_flex_l	pro_sup_l	wrist_flex_l	wrist_dev_l
      2.49399999999999980000	    -14.76912522114259500000	      3.29761962941172460000	     -0.34870401381083171000	      0.96129788111854675000	      0.97200598753639866000	     -0.33557117044491985000	     45.96201841096199600000	     -1.42881956523411200000	      6.57724807408687790000	    -90.24331143817775600000	      6.83996687137364750000	      0.00000000000015860774	     -0.00000000000000189713	     14.11381655931071000000	      9.92542506580163320000	      0.95500249407293514000	    -28.94802615668681900000	     19.01639991808573500000	      0.00000000000004651444	     -0.00000000000004333486	      2.92407796233087010000	     -4.24718442996923780000	     -4.78541709604781480000	    -34.67029028419401000000	    -19.76190367226833900000	     -9.06716857258086860000	     88.49024581736713900000	    111.01795078307414000000	     -0.00000000000002486397	      0.00000000000005313591	    -25.14851459902361000000	    -10.92127405405290700000	    -11.38270125495434500000	    114.47693139114565000000	     99.89126816065876800000	     -0.00000000000000273961	     -0.00000000000000990296
      2.49500000000000010000	    -14.79506371945645800000	      3.23398076606540520000	     -0.41860661314284503000	      0.96152844863861409000	      0.97258557985940353000	     -0.33545974761102432000	     46.09502537788001300000	     -1.32661923208021390000	      6.57559462076455770000	    -89.92618462678868200000	      6.91327828598648160000	      0.00000000000015904789	     -0.00000000000000194463	     13.79623092908740400000	      9.83898327922695160000	      0.96725058103516270000	    -28.64207683335949600000	     18.69263771450820100000	      0.00000000000004662581	     -0.00000000000004329950	      3.00072972946473370000	     -4.14481418281452730000	     -4.82382826555159120000	    -34.87399424804879500000	    -19.80467921371356600000	     -9.12598021680496710000	     88.70358516605787700000	    110.89773307258665000000	     -0.00000000000002495509	      0.00000000000005325859	    -25.16303649113500300000	    -10.90130174033844500000	    -11.40955216714949900000	    114.75195081653615000000	     99.82183764569983000000	     -0.00000000000000275160	     -0.00000000000000982377
      2.49600000000000000000	    -14.82154835676652000000	      3.16931051853915720000	     -0.48881866387903916000	      0.96176175397684516000	      0.97316965274976619000	     -0.33534745711788971000	     46.22546111467968900000	     -1.22419596574992310000	      6.57119310486473030000	    -89.60370572667336800000	      6.98598388227996740000	      0.00000000000015949018	     -0.00000000000000199242	     13.48067016053178200000	      9.75106517843610550000	      0.97660190651065371000	    -28.33723437831850600000	     18.36053890461238300000	      0.00000000000004672502	     -0.00000000000004325707	      3.07813328654768890000	     -4.04094691256263690000	     -4.86029880271617910000	    -35.07880514836562500000	    -19.84575115558994400000	     -9.18776107133628630000	     88.91707586340921000000	    110.78110450234179000000	     -0.00000000000002504583	      0.00000000000005338083	    -25.17731801226226900000	    -10.88201211529678900000	    -11.43427899323129000000	    115.02578136981806000000	     99.75335932173007300000	     -0.00000000000000276348	     -0.00000000000000973503
      2.49699999999999990000	    -14.84856594660675100000	      3.10363875695946720000	     -0.55933575852335615000	      0.96199764032301671000	      0.97375802451509996000	     -0.33523425134247770000	     46.35333659205840500000	     -1.12156981724476390000	      6.56406353795790930000	    -89.27592131459027800000	      7.05803496359756630000	      0.00000000000015993760	     -0.00000000000000204039	     13.16720974936065500000	      9.66169483997289550000	      0.98293743698980363000	    -28.03363839942667500000	     18.02028727355594700000	      0.00000000000004677730	     -0.00000000000004320036	      3.15623506494580530000	     -3.93562778957222830000	     -4.89481939497913920000	    -35.28468889159194800000	    -19.88507548286414200000	     -9.25246471115110400000	     89.13059943702734200000	    110.66797121464475000000	     -0.00000000000002513603	      0.00000000000005350097	    -25.19135862776795100000	    -10.86343703338856100000	    -11.45688115275713900000	    115.29840762977139000000	     99.68604759811862000000	     -0.00000000000000277530	     -0.00000000000000965563
      2.49799999999999980000	    -14.87610136037846900000	      3.03699418429888150000	     -0.63015375540244500000	      0.96223595269793183000	      0.97435051535762685000	     -0.33512008244558161000	     46.47866105118546900000	     -1.01875761098241320000	      6.55422785233282570000	    -88.94287725068812700000	      7.12938299273792440000	      0.00000000000016038304	     -0.00000000000000208778	     12.85591961505494900000	      9.57089661606928920000	      0.98614594556737134000	    -27.73142394330952200000	     17.67207523007834900000	      0.00000000000004683059	     -0.00000000000004315640	      3.23497955875690920000	     -3.82890087041551790000	     -4.92738278730240790000	    -35.49161040913792700000	    -19.92261263072699200000	     -9.32003859349345550000	     89.34404462503809400000	    110.55822663321440000000	     -0.00000000000002522636	      0.00000000000005362064	    -25.20516093933334300000	    -10.84560635299137300000	    -11.47736092674783800000	    115.56982081233450000000	     99.62011471545541500000	     -0.00000000000000278684	     -0.00000000000000956675
      2.49900000000000010000	    -14.90413749576619500000	      2.96940439285937210000	     -0.70126864705936387000	      0.96247653834182467000	      0.97494694757194622000	     -0.33500490286021128000	     46.60144178570993700000	     -0.91577313561313578000	      6.54170995635951870000	    -88.60461860101310100000	      7.19998006596907740000	      0.00000000000016083286	     -0.00000000000000213437	     12.54686394999073900000	      9.47869533465218340000	      0.98612468847324941000	    -27.43072135019756900000	     17.31610314095495100000	      0.00000000000004690791	     -0.00000000000004308518	      3.31430934696564080000	     -3.72080913229866490000	     -4.95798396410334790000	    -35.69953347819258500000	    -19.95832758307993500000	     -9.39042416254930150000	     89.55730714212319300000	    110.45175256647940000000	     -0.00000000000002531681	      0.00000000000005373995	    -25.21873038137741600000	    -10.82854784782088900000	    -11.49572334821050900000	    115.84001811094794000000	     99.55576996967609200000	     -0.00000000000000279811	     -0.00000000000000946855
      2.50000000000000000000	    -14.93265524541147800000	      2.90089592122864430000	     -0.77267642867777409000	      0.96271924709489209000	      0.97554714574307899000	     -0.33488866579111470000	     46.72168392352618600000	     -0.81262733454724889000	      6.52653578864543520000	    -88.26118956065109000000	      7.26977938694825010000	      0.00000000000016128358	     -0.00000000000000217988	     12.24010106838892600000	      9.38511649918072700000	      0.98278008272921791000	    -27.13165611218859400000	     16.95257869829277200000	      0.00000000000004698999	     -0.00000000000004303702	      3.39416511498340560000	     -3.61139450644774040000	     -4.98662033112977370000	    -35.90842054177613100000	    -19.99218997194455500000	     -9.46355695383238600000	     89.77028944494580300000	    110.34842031087554000000	     -0.00000000000002540681	      0.00000000000005385920	    -25.23207491669874600000	    -10.81228711768835300000	    -11.51197609248243300000	    116.10900203731288000000	     99.49321893620189900000	     -0.00000000000000280920	     -0.00000000000000937534
      2.50099999999999990000	    -14.96163346966431400000	      2.83149431484988630000	     -0.84437296580008359000	      0.96296393176461548000	      0.97615093693613375000	     -0.33477132572046148000	     46.83939021397955600000	     -0.70932849946466248000	      6.50873337247253670000	    -87.91263337802541900000	      7.33873573332792530000	      0.00000000000016173374	     -0.00000000000000222521	     11.93568326587259200000	      9.29018648650565030000	      0.97602836513465330000	    -26.83434874197006800000	     16.58171616704813200000	      0.00000000000004708445	     -0.00000000000004302757	      3.47448567986567710000	     -3.50069791514216040000	     -5.01329189614926300000	    -36.11823252941520200000	    -20.02417417212479100000	     -9.53936670181600730000	     89.98290049218623200000	    110.24809175437738000000	     -0.00000000000002549682	      0.00000000000005397886	    -25.24520473551024200000	    -10.79684750041519000000	    -11.52612937226875700000	    116.37677976728695000000	     99.43266269694336800000	     -0.00000000000000282061	     -0.00000000000000927919
